<svg id="Capa_1" data-name="Capa 1" xmlns="http://www.w3.org/2000/svg" viewBox="0 0 294.51 298.04"><defs><style>.cls-1{fill:#f4ba4d;}.cls-2,.cls-5,.cls-6{fill:none;}.cls-2{stroke:#403f6f;stroke-width:10px;}.cls-2,.cls-6{stroke-miterlimit:10;}.cls-3{fill:#f3ba4e;}.cls-4{fill:#403f6f;}.cls-6{stroke:#fff;stroke-linecap:square;stroke-width:7px;}</style></defs><title>CDALVARO_isotipo</title><circle class="cls-1" cx="165.13" cy="138.7" r="103.53"/><path class="cls-2" d="M112.59,264.45c-6.3-10.26-16.31-25.27-20.77-23.52-1.57.62-5,4-.09,26.64,15.74,73.28,44,117.17,44,117.17a463,463,0,0,0,59.5,75.67c8.3,8.47,33.32,32.49,39.34,28,4.35-3.2-2.68-20.23-9.6-34.66" transform="translate(-6.63 -210.71)"/><path class="cls-3" d="M242.07,252.18c-14.22-12-54.9,14.8-74,29.26a178.27,178.27,0,0,0-52.32,63.85,110.38,110.38,0,0,0,69.61,58.08,197.61,197.61,0,0,0,39-50.1,181.37,181.37,0,0,0,21.28-71.83C246.88,265,247.41,256.67,242.07,252.18Zm-53.56,109.5a34.36,34.36,0,1,1,34.37-34.36A34.36,34.36,0,0,1,188.51,361.68Z" transform="translate(-6.63 -210.71)"/><path class="cls-3" d="M205,375.31c-1.14,8.75-3.12,33.14,11.49,56.88a82.44,82.44,0,0,0,19.95,22.08,97.88,97.88,0,0,0-54.5,54.48A72.85,72.85,0,0,0,167.44,446a65.6,65.6,0,0,0,15.67-62.1Z" transform="translate(-6.63 -210.71)"/><circle class="cls-4" cx="118.71" cy="18.51" r="18.51"/><circle class="cls-4" cx="134.45" cy="257.29" r="8.53"/><path class="cls-2" d="M69.54,383.21c-16.89,2.48-35.9,6.41-36.14,12.17-.21,4.8,12.72,9.07,21.54,11.71,66.24,19.83,114.12,17.07,114.12,17.07q127.6-18.23,127.08-31.34-.22-5.65-24.39-10.37" transform="translate(-6.63 -210.71)"/><circle class="cls-4" cx="259.89" cy="164.6" r="18.51"/><circle class="cls-4" cx="256.51" cy="61.21" r="8.53"/><circle class="cls-4" cx="64.23" cy="171.74" r="8.53"/><circle class="cls-4" cx="245.57" cy="227.27" r="8.53"/><polygon class="cls-1" points="86.78 148.54 111.06 125.63 188.88 195.1 190.54 227.27 170.26 240.33 138.66 229.84 88.78 174.81 86.78 148.54"/><path class="cls-3" d="M135.09,322.08c-8.47,2.44-32.29,8.06-58-2.81a82.72,82.72,0,0,1-24.83-16.4,98,98,0,0,1-16,35,98.1,98.1,0,0,1-29.71,27,72.8,72.8,0,0,1,64.23,4.88,65.6,65.6,0,0,1,59-24.83Z" transform="translate(-6.63 -210.71)"/><path class="cls-4" d="M212.65,254.27c-16,6.8-33.76,19-44.63,27.17A175.13,175.13,0,0,0,128.1,323.8c-11.28,2.33-30.54,4.13-51-4.53-1.24-.52-2.43-1.07-3.59-1.63A104.19,104.19,0,0,0,70,369.3l.9.52a65.46,65.46,0,0,1,45-24.88l-.17.35a110.41,110.41,0,0,0,69.59,58.08A64.62,64.62,0,0,1,183,418.45,66,66,0,0,1,167.44,446a71.77,71.77,0,0,1,5,6.94A103.17,103.17,0,0,0,221.93,440a80.38,80.38,0,0,1-5.46-7.8c-11.43-18.57-12.71-37.53-12.18-49.1a195.22,195.22,0,0,0,20-29.82,181.37,181.37,0,0,0,21.28-71.83c.12-1.49.22-2.9.32-4.26A103.54,103.54,0,0,0,212.65,254.27ZM188.51,361.68a34.36,34.36,0,1,1,34.37-34.36A34.36,34.36,0,0,1,188.51,361.68Z" transform="translate(-6.63 -210.71)"/><path class="cls-3" d="M108.15,357.19a79.37,79.37,0,0,0,68.74,55.32,162.09,162.09,0,0,1-54.2,40.83,159.88,159.88,0,0,1-39.77,12.34,136,136,0,0,1,25.23-108.49Z" transform="translate(-6.63 -210.71)"/><path class="cls-4" d="M133.85,395.06a80,80,0,0,1-25.7-37.87,137.39,137.39,0,0,0-23.42,48.3,103.83,103.83,0,0,0,51.07,41,163.07,163.07,0,0,0,41.09-34A80,80,0,0,1,133.85,395.06Z" transform="translate(-6.63 -210.71)"/><path class="cls-5" d="M128.1,323.8c-11.28,2.33-30.54,4.13-51-4.53a82.72,82.72,0,0,1-24.83-16.4,98,98,0,0,1-16,35,98.1,98.1,0,0,1-29.71,27,72.8,72.8,0,0,1,64.23,4.88,65.46,65.46,0,0,1,45-24.88A184.09,184.09,0,0,1,128.1,323.8Z" transform="translate(-6.63 -210.71)"/><path class="cls-6" d="M220,251.5" transform="translate(-6.63 -210.71)"/></svg>